<mxfile host="app.diagrams.net" modified="2024-02-29T16:38:08.769Z" agent="Mozilla/5.0 (X11; Ubuntu; Linux x86_64; rv:123.0) Gecko/20100101 Firefox/123.0" etag="-W7PKLmLbbVysNMtWFdZ" version="24.0.0" type="github">
  <diagram name="Page-1" id="Ih15XnK7qI_331mDzQly">
    <mxGraphModel dx="880" dy="483" grid="1" gridSize="10" guides="1" tooltips="1" connect="1" arrows="1" fold="1" page="1" pageScale="1" pageWidth="850" pageHeight="1100" math="0" shadow="0">
      <root>
        <mxCell id="0" />
        <mxCell id="1" parent="0" />
        <mxCell id="2teiCaBBHGrUATH4LVff-3" value="" style="edgeStyle=orthogonalEdgeStyle;rounded=0;orthogonalLoop=1;jettySize=auto;html=1;" edge="1" parent="1" source="2teiCaBBHGrUATH4LVff-1" target="2teiCaBBHGrUATH4LVff-2">
          <mxGeometry relative="1" as="geometry" />
        </mxCell>
        <mxCell id="2teiCaBBHGrUATH4LVff-1" value="&lt;div&gt;User&lt;/div&gt;&lt;div&gt;&lt;br&gt;&lt;/div&gt;" style="shape=umlActor;verticalLabelPosition=bottom;verticalAlign=top;html=1;outlineConnect=0;" vertex="1" parent="1">
          <mxGeometry x="470" y="430" width="30" height="60" as="geometry" />
        </mxCell>
        <mxCell id="2teiCaBBHGrUATH4LVff-6" value="" style="edgeStyle=orthogonalEdgeStyle;rounded=0;orthogonalLoop=1;jettySize=auto;html=1;" edge="1" parent="1" source="2teiCaBBHGrUATH4LVff-2" target="2teiCaBBHGrUATH4LVff-5">
          <mxGeometry relative="1" as="geometry" />
        </mxCell>
        <mxCell id="2teiCaBBHGrUATH4LVff-2" value="Tries to access https://foobar.com" style="whiteSpace=wrap;html=1;verticalAlign=top;" vertex="1" parent="1">
          <mxGeometry x="425" y="320" width="120" height="40" as="geometry" />
        </mxCell>
        <mxCell id="2teiCaBBHGrUATH4LVff-9" value="" style="edgeStyle=orthogonalEdgeStyle;rounded=0;orthogonalLoop=1;jettySize=auto;html=1;" edge="1" parent="1" source="2teiCaBBHGrUATH4LVff-5" target="2teiCaBBHGrUATH4LVff-8">
          <mxGeometry relative="1" as="geometry" />
        </mxCell>
        <mxCell id="2teiCaBBHGrUATH4LVff-5" value="Computer contacts a DNS which translates foobar.com into 8.8.8.8" style="whiteSpace=wrap;html=1;verticalAlign=top;" vertex="1" parent="1">
          <mxGeometry x="240" y="312.5" width="140" height="55" as="geometry" />
        </mxCell>
        <mxCell id="2teiCaBBHGrUATH4LVff-11" value="" style="edgeStyle=orthogonalEdgeStyle;rounded=0;orthogonalLoop=1;jettySize=auto;html=1;" edge="1" parent="1" source="2teiCaBBHGrUATH4LVff-8" target="2teiCaBBHGrUATH4LVff-10">
          <mxGeometry relative="1" as="geometry" />
        </mxCell>
        <mxCell id="2teiCaBBHGrUATH4LVff-8" value="Connection is established with the server using TCP protocol" style="whiteSpace=wrap;html=1;verticalAlign=top;" vertex="1" parent="1">
          <mxGeometry x="70" y="307.5" width="120" height="65" as="geometry" />
        </mxCell>
        <mxCell id="2teiCaBBHGrUATH4LVff-19" value="" style="swimlane;startSize=0;" vertex="1" parent="1">
          <mxGeometry x="70" y="430" width="345" height="170" as="geometry">
            <mxRectangle x="50" y="430" width="50" height="40" as="alternateBounds" />
          </mxGeometry>
        </mxCell>
        <mxCell id="2teiCaBBHGrUATH4LVff-10" value="&lt;div&gt;Web Server&lt;/div&gt;&lt;div&gt;(NGINX)&lt;br&gt;&lt;/div&gt;" style="whiteSpace=wrap;html=1;verticalAlign=top;" vertex="1" parent="2teiCaBBHGrUATH4LVff-19">
          <mxGeometry x="20" y="23.129999999999995" width="120" height="45" as="geometry" />
        </mxCell>
        <mxCell id="2teiCaBBHGrUATH4LVff-12" value="&lt;div&gt;Application Files&lt;/div&gt;&lt;div&gt;(website&#39;s code)&lt;br&gt;&lt;/div&gt;" style="whiteSpace=wrap;html=1;verticalAlign=top;" vertex="1" parent="2teiCaBBHGrUATH4LVff-19">
          <mxGeometry x="20" y="109.38" width="120" height="37.5" as="geometry" />
        </mxCell>
        <mxCell id="2teiCaBBHGrUATH4LVff-13" value="" style="edgeStyle=orthogonalEdgeStyle;rounded=0;orthogonalLoop=1;jettySize=auto;html=1;" edge="1" parent="2teiCaBBHGrUATH4LVff-19" source="2teiCaBBHGrUATH4LVff-10" target="2teiCaBBHGrUATH4LVff-12">
          <mxGeometry relative="1" as="geometry" />
        </mxCell>
        <mxCell id="2teiCaBBHGrUATH4LVff-14" value="&lt;div&gt;Application Server&lt;/div&gt;&lt;div&gt;(PHP server)&lt;br&gt;&lt;/div&gt;" style="whiteSpace=wrap;html=1;verticalAlign=top;" vertex="1" parent="2teiCaBBHGrUATH4LVff-19">
          <mxGeometry x="200" y="108.13" width="120" height="38.75" as="geometry" />
        </mxCell>
        <mxCell id="2teiCaBBHGrUATH4LVff-15" value="" style="edgeStyle=orthogonalEdgeStyle;rounded=0;orthogonalLoop=1;jettySize=auto;html=1;" edge="1" parent="2teiCaBBHGrUATH4LVff-19" source="2teiCaBBHGrUATH4LVff-12" target="2teiCaBBHGrUATH4LVff-14">
          <mxGeometry relative="1" as="geometry" />
        </mxCell>
        <mxCell id="2teiCaBBHGrUATH4LVff-16" value="&lt;div&gt;Database&lt;/div&gt;&lt;div&gt;(MySQL)&lt;br&gt;&lt;/div&gt;" style="whiteSpace=wrap;html=1;verticalAlign=top;" vertex="1" parent="2teiCaBBHGrUATH4LVff-19">
          <mxGeometry x="200" y="38.129999999999995" width="120" height="40.63" as="geometry" />
        </mxCell>
        <mxCell id="2teiCaBBHGrUATH4LVff-17" value="" style="edgeStyle=orthogonalEdgeStyle;rounded=0;orthogonalLoop=1;jettySize=auto;html=1;" edge="1" parent="2teiCaBBHGrUATH4LVff-19" source="2teiCaBBHGrUATH4LVff-14" target="2teiCaBBHGrUATH4LVff-16">
          <mxGeometry relative="1" as="geometry" />
        </mxCell>
        <mxCell id="2teiCaBBHGrUATH4LVff-20" value="Server" style="text;html=1;align=center;verticalAlign=middle;resizable=0;points=[];autosize=1;strokeColor=none;fillColor=none;" vertex="1" parent="2teiCaBBHGrUATH4LVff-19">
          <mxGeometry x="285" width="60" height="30" as="geometry" />
        </mxCell>
      </root>
    </mxGraphModel>
  </diagram>
</mxfile>
